<?xml version="1.0" standalone="no"?>
<!DOCTYPE svg PUBLIC "-//W3C//DTD SVG 20010904//EN"
 "http://www.w3.org/TR/2001/REC-SVG-20010904/DTD/svg10.dtd">
<svg version="1.0" xmlns="http://www.w3.org/2000/svg"
 width="300.000000pt" height="300.000000pt" viewBox="0 0 300.000000 300.000000"
 preserveAspectRatio="xMidYMid meet">
<metadata>
Created by potrace 1.10, written by Peter Selinger 2001-2011
</metadata>
<g transform="translate(0.000000,300.000000) scale(0.100000,-0.100000)"
fill="#000000" stroke="none">
<path d="M1136 2024 c-292 -98 -337 -116 -324 -129 3 -3 68 -25 144 -48 l139
-42 5 -115 5 -115 80 -27 c44 -14 85 -27 91 -27 7 -1 13 24 16 63 3 50 10 71
31 100 77 100 220 94 292 -12 20 -29 25 -49 25 -94 0 -40 4 -58 13 -57 6 0 48
13 92 27 l80 27 5 115 5 114 85 27 c47 14 94 29 105 32 19 7 20 2 20 -136 0
-135 -1 -143 -22 -160 -16 -13 -23 -29 -23 -53 0 -69 76 -99 125 -49 32 31 32
67 0 96 -24 24 -25 27 -25 177 0 95 4 152 10 152 6 0 10 6 10 13 0 12 -629
228 -660 226 -8 0 -154 -47 -324 -105z m607 -22 c142 -48 259 -92 260 -97 0
-6 -27 -18 -61 -27 -77 -21 -123 -47 -139 -79 -7 -13 -13 -58 -13 -100 0 -92
-10 -109 -69 -112 l-43 -2 -13 48 c-8 31 -25 62 -49 86 -41 42 -44 51 -17 51
10 0 26 12 36 26 34 53 -26 106 -80 70 -23 -15 -25 -15 -49 9 -14 14 -33 25
-42 25 -22 0 -54 -28 -54 -47 0 -11 -7 -9 -29 6 -16 12 -36 21 -45 21 -22 0
-56 -36 -56 -59 0 -25 46 -62 68 -54 9 3 -1 -14 -24 -38 -40 -44 -53 -67 -71
-124 -9 -33 -32 -36 -83 -12 -24 12 -25 18 -30 109 -6 119 -15 131 -128 167
-43 14 -80 30 -81 36 -3 11 -9 8 294 110 121 40 229 73 240 74 11 0 136 -39
278 -87z m-248 -142 c10 0 11 -5 2 -22 -14 -31 -50 -32 -64 -2 -9 19 -8 24 3
24 8 0 17 7 21 16 5 15 7 15 15 0 5 -9 15 -16 23 -16z m135 -30 c5 0 1 -9 -9
-19 -21 -21 -66 -18 -57 4 2 7 -1 18 -7 25 -10 10 -7 12 10 7 14 -3 24 1 28
12 6 13 8 12 16 -6 4 -13 13 -23 19 -23z m-262 20 c12 0 13 -3 5 -11 -6 -6
-10 -17 -7 -23 2 -6 -7 -16 -21 -23 -22 -10 -25 -9 -25 8 0 10 -7 19 -15 19
-12 0 -12 3 3 19 9 11 23 17 30 15 8 -2 21 -4 30 -4z m49 -45 c7 -19 5 -21
-27 -29 -14 -3 -19 -3 -12 0 6 3 12 14 12 25 0 23 18 25 27 4z m123 -5 c9 -17
8 -20 -10 -20 -13 0 -20 7 -20 20 0 11 4 20 10 20 5 0 14 -9 20 -20z m550
-254 c13 -17 10 -58 -5 -63 -6 -2 -19 3 -30 11 -17 12 -18 17 -7 40 13 29 24
32 42 12z"/>
<path d="M1401 1692 c-120 -64 -77 -252 58 -252 58 0 89 16 119 60 31 46 27
118 -9 156 -52 55 -109 68 -168 36z m123 -92 l31 -1 -26 -22 c-22 -18 -25 -27
-18 -49 9 -33 7 -33 -27 -12 -23 16 -26 15 -44 -1 -25 -22 -33 -16 -21 16 7
20 4 28 -18 46 l-26 22 31 1 c26 0 34 6 45 32 l13 31 15 -31 c12 -26 21 -32
45 -32z"/>
<path d="M1024 1380 c-34 -11 -47 -30 -37 -56 4 -12 13 -14 32 -9 126 34 311
-3 375 -74 l19 -21 -202 0 c-223 0 -248 -6 -270 -58 -16 -37 -5 -77 26 -102
25 -19 42 -20 500 -20 l475 0 29 29 c32 33 36 58 15 100 -24 46 -50 51 -268
51 -195 0 -201 1 -184 19 63 70 266 114 363 79 39 -14 59 -2 48 31 -10 31 -74
44 -185 38 -128 -7 -196 -33 -252 -96 l-43 -48 -43 48 c-60 67 -125 91 -262
95 -58 2 -119 -1 -136 -6z m483 -174 c-5 -16 -87 -18 -87 -2 0 8 15 13 45 13
28 0 44 -4 42 -11z m418 -62 c12 -12 13 -19 4 -30 -17 -21 -911 -21 -928 0 -9
11 -8 18 4 30 15 14 66 16 460 16 394 0 445 -2 460 -16z"/>
<path d="M996 934 c-9 -8 -16 -19 -16 -24 0 -14 30 -40 53 -45 12 -3 217 -4
455 -3 416 3 434 4 448 22 20 27 18 43 -7 57 -18 9 -24 8 -31 -5 -8 -14 -53
-16 -428 -16 -359 0 -421 2 -434 15 -18 19 -21 19 -40 -1z"/>
</g>
</svg>
